<svg width="16" height="13" viewBox="0 0 16 13" fill="none" xmlns="http://www.w3.org/2000/svg">
<path d="M15.5317 0.233829C15.4138 0.145093 15.2786 0.0794312 15.1339 0.0406342C14.9892 0.00183713 14.8378 -0.00932738 14.6886 0.00778468C14.5393 0.0248967 14.395 0.0699469 14.2642 0.140335C14.1333 0.210723 14.0184 0.305056 13.9261 0.417889L5.955 10.1622L2.04917 5.63653C1.95755 5.52057 1.84237 5.4233 1.71045 5.35049C1.57854 5.27767 1.43258 5.2308 1.28125 5.21265C1.12992 5.19449 0.976292 5.20543 0.829492 5.24482C0.682691 5.2842 0.545709 5.35123 0.426675 5.44191C0.307642 5.5326 0.208984 5.6451 0.136557 5.77274C0.0641305 5.90037 0.0194118 6.04055 0.00505517 6.18493C-0.0093014 6.32932 0.00699706 6.47497 0.0529827 6.61325C0.0989684 6.75153 0.173704 6.87962 0.272754 6.98991L5.02124 12.5983C5.12842 12.7239 5.26383 12.8251 5.41754 12.8944C5.57124 12.9638 5.73933 12.9995 5.90945 12.9989C6.09002 13.0066 6.26993 12.9733 6.43428 12.9017C6.59863 12.8302 6.7427 12.7225 6.85459 12.5875L15.7708 1.76044C15.8617 1.6457 15.9277 1.51491 15.9649 1.37569C16.0021 1.23647 16.0098 1.09159 15.9876 0.94951C15.9653 0.807427 15.9135 0.670976 15.8353 0.548105C15.757 0.425235 15.6538 0.318401 15.5317 0.233829Z" fill="#10FF13"/>
</svg>
